<svg width="216" height="56" viewBox="0 0 216 56" fill="none" xmlns="http://www.w3.org/2000/svg">
<path d="M50.1836 32.9629C49.4388 31.5918 49.0664 30.0514 49.0664 28.3418C49.0664 26.6322 49.4388 25.096 50.1836 23.7334C50.9368 22.3623 51.9863 21.2917 53.332 20.5215C54.6862 19.7513 56.2181 19.3662 57.9277 19.3662C59.2057 19.3662 60.3949 19.5947 61.4951 20.0518C62.6038 20.5003 63.5433 21.1224 64.3135 21.918C65.0921 22.7051 65.7015 23.653 66.1416 24.7617C66.5817 25.8704 66.8018 27.0638 66.8018 28.3418C66.8018 29.6198 66.5817 30.8132 66.1416 31.9219C65.7015 33.0306 65.0921 33.9827 64.3135 34.7783C63.5433 35.5654 62.6038 36.1875 61.4951 36.6445C60.3949 37.0931 59.2057 37.3174 57.9277 37.3174C56.2181 37.3174 54.6862 36.9323 53.332 36.1621C51.9863 35.3919 50.9368 34.3255 50.1836 32.9629ZM52.1895 28.3418C52.1895 30.153 52.7142 31.651 53.7637 32.8359C54.8132 34.0208 56.2012 34.6133 57.9277 34.6133C59.6458 34.6133 61.0339 34.0208 62.0918 32.8359C63.1497 31.651 63.6787 30.153 63.6787 28.3418C63.6787 26.5221 63.1497 25.0241 62.0918 23.8477C61.0339 22.6628 59.6458 22.0703 57.9277 22.0703C56.2012 22.0703 54.8132 22.6585 53.7637 23.835C52.7142 25.0114 52.1895 26.5137 52.1895 28.3418ZM69.9055 33.3311V24.4443H72.635V32.3408C72.635 33.2718 72.8508 33.932 73.2825 34.3213C73.7141 34.7021 74.3404 34.8926 75.1614 34.8926C75.8131 34.8926 76.4267 34.736 77.0022 34.4229C77.5777 34.1097 78.039 33.7204 78.386 33.2549V24.4443H81.1155V37H78.386V35.3369C77.8782 35.904 77.2392 36.3779 76.469 36.7588C75.7073 37.1312 74.8651 37.3174 73.9426 37.3174C72.6054 37.3174 71.5982 36.9788 70.9211 36.3018C70.244 35.6247 69.9055 34.6344 69.9055 33.3311ZM84.9175 37V24.4443H87.647V26.2852C88.1463 25.6589 88.7557 25.1468 89.4751 24.749C90.1945 24.3512 90.9477 24.1523 91.7348 24.1523V26.8564C91.5063 26.8057 91.2186 26.7803 90.8716 26.7803C90.296 26.7803 89.6824 26.9495 89.0307 27.2881C88.379 27.6182 87.9178 28.0033 87.647 28.4434V37H84.9175ZM94.2673 37V19.6582H106.15V22.3369H97.3142V26.8311H105.972V29.5098H97.3142V34.3213H106.15V37H94.2673ZM107.819 37L112.428 30.5508L108.086 24.4443H111.145L114.142 28.71L117.1 24.4443H120.172L115.83 30.5508L120.464 37H117.392L114.142 32.3662L110.866 37H107.819ZM122.615 41.7861V24.4443H125.345V26.1582C125.819 25.5234 126.407 25.0283 127.11 24.6729C127.821 24.3089 128.578 24.127 129.382 24.127C131.041 24.127 132.382 24.7152 133.406 25.8916C134.431 27.068 134.943 28.6719 134.943 30.7031C134.943 32.7428 134.426 34.3551 133.394 35.54C132.37 36.7249 131.032 37.3174 129.382 37.3174C128.586 37.3174 127.842 37.1439 127.148 36.7969C126.454 36.4414 125.853 35.9294 125.345 35.2607V41.7861H122.615ZM125.345 33.2041C125.65 33.6696 126.107 34.0674 126.716 34.3975C127.334 34.7275 127.952 34.8926 128.57 34.8926C129.636 34.8926 130.491 34.5033 131.134 33.7246C131.786 32.946 132.112 31.9388 132.112 30.7031C132.112 29.4844 131.786 28.4899 131.134 27.7197C130.491 26.9411 129.636 26.5518 128.57 26.5518C127.943 26.5518 127.325 26.7168 126.716 27.0469C126.107 27.3685 125.65 27.7663 125.345 28.2402V33.2041ZM137.132 30.7031C137.132 29.5013 137.399 28.401 137.932 27.4023C138.474 26.3952 139.235 25.5996 140.217 25.0156C141.199 24.4232 142.295 24.127 143.505 24.127C145.367 24.127 146.861 24.7702 147.987 26.0566C149.121 27.3346 149.688 28.9723 149.688 30.9697V31.6172H139.989C140.099 32.6074 140.505 33.4326 141.207 34.0928C141.918 34.7445 142.845 35.0703 143.988 35.0703C144.622 35.0703 145.266 34.9518 145.917 34.7148C146.578 34.4694 147.123 34.1309 147.555 33.6992L148.799 35.4893C148.181 36.0817 147.432 36.5345 146.552 36.8477C145.672 37.1608 144.724 37.3174 143.708 37.3174C141.804 37.3174 140.23 36.708 138.986 35.4893C137.75 34.262 137.132 32.6667 137.132 30.7031ZM139.963 29.7002H147.035C147.018 29.3109 146.937 28.93 146.793 28.5576C146.658 28.1768 146.455 27.8171 146.184 27.4785C145.913 27.14 145.545 26.8691 145.08 26.666C144.622 26.4629 144.098 26.3613 143.505 26.3613C142.947 26.3613 142.439 26.4629 141.982 26.666C141.533 26.8607 141.169 27.1273 140.89 27.4658C140.619 27.7959 140.403 28.1514 140.243 28.5322C140.09 28.9046 139.997 29.2939 139.963 29.7002ZM152.639 37V24.4443H155.369V26.2852C155.868 25.6589 156.478 25.1468 157.197 24.749C157.916 24.3512 158.67 24.1523 159.457 24.1523V26.8564C159.228 26.8057 158.94 26.7803 158.593 26.7803C158.018 26.7803 157.404 26.9495 156.753 27.2881C156.101 27.6182 155.64 28.0033 155.369 28.4434V37H152.639ZM160.377 26.8311V24.4443H162.459V21.0039H165.188V24.4443H167.74V26.8311H165.188V33.4072C165.188 33.8473 165.294 34.207 165.506 34.4863C165.717 34.7572 166.014 34.8926 166.394 34.8926C166.64 34.8926 166.877 34.8503 167.105 34.7656C167.334 34.6725 167.503 34.5667 167.613 34.4482L168.261 36.5049C167.694 37.0465 166.835 37.3174 165.684 37.3174C164.634 37.3174 163.834 37.0423 163.284 36.4922C162.734 35.9336 162.459 35.1338 162.459 34.0928V26.8311H160.377Z" fill="#273238"/>
<path d="M170.552 37V19.6582H177.001C178.778 19.6582 180.357 20.0264 181.736 20.7627C183.116 21.499 184.182 22.5273 184.936 23.8477C185.697 25.1595 186.078 26.6576 186.078 28.3418C186.078 30.026 185.697 31.5241 184.936 32.8359C184.182 34.1478 183.116 35.1719 181.736 35.9082C180.357 36.6361 178.778 37 177.001 37H170.552ZM173.599 34.3213H177.001C178.22 34.3213 179.286 34.0505 180.2 33.5088C181.114 32.9587 181.8 32.235 182.257 31.3379C182.722 30.4408 182.955 29.4421 182.955 28.3418C182.955 26.5983 182.43 25.1637 181.381 24.0381C180.332 22.904 178.872 22.3369 177.001 22.3369H173.599V34.3213ZM188.42 30.7031C188.42 29.806 188.573 28.9596 188.877 28.1641C189.182 27.36 189.605 26.6618 190.147 26.0693C190.697 25.4684 191.378 24.9945 192.191 24.6475C193.003 24.3005 193.896 24.127 194.87 24.127C196.173 24.127 197.32 24.4274 198.31 25.0283C199.309 25.6292 200.062 26.4248 200.57 27.415C201.086 28.3968 201.344 29.4928 201.344 30.7031C201.344 31.9219 201.086 33.0306 200.57 34.0293C200.062 35.0195 199.309 35.8151 198.31 36.416C197.32 37.0169 196.173 37.3174 194.87 37.3174C193.896 37.3174 193.003 37.1439 192.191 36.7969C191.378 36.4414 190.697 35.9674 190.147 35.375C189.605 34.7741 189.182 34.0716 188.877 33.2676C188.573 32.4635 188.42 31.6087 188.42 30.7031ZM191.251 30.7031C191.251 31.8711 191.577 32.8613 192.229 33.6738C192.881 34.4863 193.761 34.8926 194.87 34.8926C195.995 34.8926 196.88 34.4906 197.523 33.6865C198.175 32.874 198.5 31.8796 198.5 30.7031C198.5 29.5436 198.175 28.5618 197.523 27.7578C196.88 26.9538 195.995 26.5518 194.87 26.5518C193.761 26.5518 192.881 26.9538 192.229 27.7578C191.577 28.5618 191.251 29.5436 191.251 30.7031ZM203.585 30.7031C203.585 28.7988 204.19 27.2288 205.4 25.9932C206.619 24.749 208.18 24.127 210.085 24.127C212.184 24.127 213.787 24.8717 214.896 26.3613L213.093 28.0244C212.399 27.0426 211.439 26.5518 210.212 26.5518C209.077 26.5518 208.159 26.9368 207.457 27.707C206.763 28.4772 206.416 29.4759 206.416 30.7031C206.416 31.9388 206.763 32.946 207.457 33.7246C208.159 34.5033 209.077 34.8926 210.212 34.8926C211.413 34.8926 212.374 34.3975 213.093 33.4072L214.896 35.0703C213.779 36.5684 212.175 37.3174 210.085 37.3174C208.18 37.3174 206.619 36.6953 205.4 35.4512C204.19 34.207 203.585 32.6243 203.585 30.7031Z" fill="#4083E0"/>
<path d="M27.0833 55.5C31.5422 55.5 35.1871 51.9516 35.329 47.5332C38.3019 46.7439 40.5 44.0353 40.5 40.8203C40.5 36.9893 37.378 33.875 33.5417 33.875C29.7054 33.875 26.5833 36.9893 26.5833 40.8203C26.5833 44.031 28.7757 46.7367 31.7426 47.53C31.6047 49.9737 29.5681 51.9219 27.0833 51.9219C24.5096 51.9219 22.4167 49.8317 22.4167 47.2656V27.7423C28.2554 26.8753 32.75 21.8404 32.75 15.7734V9.86719C32.75 7.45773 30.7869 5.5 28.375 5.5H25.7891C24.801 5.5 24 6.30099 24 7.28906C24 8.27713 24.801 9.07812 25.7891 9.07812H28.375C28.812 9.07812 29.1667 9.43349 29.1667 9.86719V15.7734C29.1667 20.4719 25.3354 24.2969 20.625 24.2969C15.9146 24.2969 12.0833 20.4719 12.0833 15.7734V9.86719C12.0833 9.43349 12.438 9.07812 12.875 9.07812H15.4609C16.449 9.07812 17.25 8.27713 17.25 7.28906C17.25 6.30099 16.449 5.5 15.4609 5.5H12.875C10.4631 5.5 8.5 7.45773 8.5 9.86719V15.7734C8.5 21.8404 12.9946 26.8753 18.8333 27.7423V47.2656C18.8333 51.8074 22.5348 55.5 27.0833 55.5Z" fill="#273238" stroke="#273238"/>
<path d="M21 35C20.738 35 20.4771 34.9098 20.2672 34.7282C18.6473 33.3285 17.1068 32.0309 15.6576 30.8105C7.47861 23.9237 2 19.3733 2 12.7444C2 6.61912 6.38165 2 12.0938 2C16.5958 2 19.4856 5.10772 21 7.90605C22.5144 5.10772 25.4042 2 29.9062 2C35.6183 2 40 6.61912 40 12.7444C40 19.3734 34.5214 23.9237 26.3424 30.8105C24.8932 32.0309 23.3527 33.3285 21.7328 34.7282C21.5229 34.9098 21.262 35 21 35Z" fill="white" stroke="#4083E0" stroke-width="4" stroke-linejoin="round"/>
</svg>
